<?xml version="1.0" encoding="utf-8"?>
<!-- Generator: Adobe Illustrator 16.0.0, SVG Export Plug-In . SVG Version: 6.00 Build 0)  -->
<!DOCTYPE svg PUBLIC "-//W3C//DTD SVG 1.1//EN" "http://www.w3.org/Graphics/SVG/1.1/DTD/svg11.dtd">
<svg version="1.1" id="plus" xmlns="http://www.w3.org/2000/svg" xmlns:xlink="http://www.w3.org/1999/xlink" x="0px" y="0px"
	 width="100px" height="100px" viewBox="0 0 100 100" enable-background="new 0 0 100 100" xml:space="preserve">
<path d="M86.039,40H60V13.073C60,11.13,58.209,10,56,10H44c-2.209,0-4,1.13-4,3.073V40H13.073C11.13,40,10,41.791,10,44v12
	c0,2.209,1.13,4,3.073,4H40v26.039C40,87.979,41.791,90,44,90h12c2.209,0,4-2.021,4-3.961V60h26.039C87.979,60,90,58.209,90,56V44
	C90,41.791,87.979,40,86.039,40z"/>
</svg>
